<?xml version="1.0" encoding="UTF-8"?>
<svg id="Layer_1" data-name="Layer 1" xmlns="http://www.w3.org/2000/svg" viewBox="0 0 17.53 17.53">
  <path d="M8.76,1.58c2.34,0,2.62,0,3.54.05.85.04,1.32.18,1.63.3.41.16.7.35,1.01.66.31.31.5.6.66,1.01.12.31.26.77.3,1.63.04.92.05,1.2.05,3.54s0,2.62-.05,3.54c-.04.85-.18,1.32-.3,1.63-.16.41-.35.7-.66,1.01s-.6.5-1.01.66c-.31.12-.77.26-1.63.3-.92.04-1.2.05-3.54.05s-2.62,0-3.54-.05c-.85-.04-1.32-.18-1.63-.3-.41-.16-.7-.35-1.01-.66s-.5-.6-.66-1.01c-.12-.31-.26-.77-.3-1.63-.04-.92-.05-1.2-.05-3.54s0-2.62.05-3.54c.04-.85.18-1.32.3-1.63.16-.41.35-.7.66-1.01.31-.31.6-.5,1.01-.66.31-.12.77-.26,1.63-.3.92-.04,1.2-.05,3.54-.05M8.76,0c-2.38,0-2.68.01-3.61.05-.93.04-1.57.19-2.13.41-.58.22-1.07.52-1.55,1.01-.49.49-.79.98-1.01,1.55-.22.56-.36,1.19-.41,2.13-.04.93-.05,1.23-.05,3.61s.01,2.68.05,3.61c.04.93.19,1.57.41,2.13.22.58.52,1.07,1.01,1.55.49.49.98.79,1.55,1.01.56.22,1.19.36,2.13.41.93.04,1.23.05,3.61.05s2.68-.01,3.61-.05c.93-.04,1.57-.19,2.13-.41.58-.22,1.07-.52,1.55-1.01.49-.49.79-.98,1.01-1.55.22-.56.36-1.19.41-2.13.04-.93.05-1.23.05-3.61s-.01-2.68-.05-3.61c-.04-.93-.19-1.57-.41-2.13-.22-.58-.52-1.07-1.01-1.55-.49-.49-.98-.79-1.55-1.01-.56-.22-1.19-.36-2.13-.41-.93-.04-1.23-.05-3.61-.05h0Z"/>
  <path d="M8.76,4.26c-2.49,0-4.5,2.02-4.5,4.5s2.02,4.5,4.5,4.5,4.5-2.02,4.5-4.5-2.02-4.5-4.5-4.5ZM8.76,11.69c-1.61,0-2.92-1.31-2.92-2.92s1.31-2.92,2.92-2.92,2.92,1.31,2.92,2.92-1.31,2.92-2.92,2.92Z"/>
  <circle cx="13.44" cy="4.09" r="1.05"/>
</svg>