<?xml version="1.0" encoding="UTF-8"?>
<svg id="Layer_1" xmlns="http://www.w3.org/2000/svg" version="1.1" viewBox="0 0 17.5 17.5">
  <!-- Generator: Adobe Illustrator 29.2.1, SVG Export Plug-In . SVG Version: 2.1.0 Build 116)  -->
  <path d="M8.8,0C3.9,0,0,3.9,0,8.8s2.2,6.7,5.2,8c0-.6,0-1.3.2-2,.2-.7,1.1-4.8,1.1-4.8,0,0-.3-.6-.3-1.4,0-1.3.8-2.3,1.7-2.3s1.2.6,1.2,1.3-.5,2-.8,3.1c-.2.9.5,1.7,1.4,1.7,1.7,0,2.8-2.1,2.8-4.7s-1.3-3.4-3.6-3.4-4.3,2-4.3,4.2.2,1.3.6,1.7c.2.2.2.3.1.5,0,.2-.1.5-.2.7,0,.2-.2.3-.4.2-1.2-.5-1.8-1.8-1.8-3.3,0-2.5,2.1-5.5,6.3-5.5s5.5,2.4,5.5,5-1.9,6-4.7,6-1.8-.5-2.1-1.1c0,0-.5,2-.6,2.4-.2.7-.5,1.4-.9,1.9.8.2,1.6.4,2.5.4,4.8,0,8.8-3.9,8.8-8.8S13.6,0,8.8,0Z"/>
</svg>